<?xml version="1.0" encoding="UTF-8" standalone="no"?>
<svg
   width="128"
   height="128"
   version="1.1"
   id="svg6"
   sodipodi:docname="icon.svg"
   inkscape:version="1.3 (0e150ed6c4, 2023-07-21)"
   xmlns:inkscape="http://www.inkscape.org/namespaces/inkscape"
   xmlns:sodipodi="http://sodipodi.sourceforge.net/DTD/sodipodi-0.dtd"
   xmlns="http://www.w3.org/2000/svg"
   xmlns:svg="http://www.w3.org/2000/svg">
  <defs
     id="defs6" />
  <sodipodi:namedview
     id="namedview6"
     pagecolor="#505050"
     bordercolor="#eeeeee"
     borderopacity="1"
     inkscape:showpageshadow="0"
     inkscape:pageopacity="0"
     inkscape:pagecheckerboard="0"
     inkscape:deskcolor="#505050"
     inkscape:zoom="4.6017184"
     inkscape:cx="66.062279"
     inkscape:cy="87.901946"
     inkscape:window-width="1920"
     inkscape:window-height="1009"
     inkscape:window-x="1912"
     inkscape:window-y="-8"
     inkscape:window-maximized="1"
     inkscape:current-layer="svg6" />
  <rect
     width="124"
     height="124"
     x="2"
     y="2"
     fill="#363d52"
     stroke="#212532"
     stroke-width="4"
     rx="14"
     id="rect1" />
  <path
     id="path26"
     style="fill:#000000;stroke-width:4.13831"
     d="M 47.926202,9.2040336 A 57.49225,41.548974 72.570821 0 0 25.505585,76.501323 57.49225,41.548974 72.570821 0 0 82.367114,118.90927 57.49225,41.548974 72.570821 0 0 104.78807,51.611349 57.49225,41.548974 72.570821 0 0 75.015514,12.639021 l -4.15043,12.398324 c 1.33659,1.080884 4.111704,1.804398 3.816467,3.290955 -1.543881,2.33106 -2.806296,-0.105156 -4.190497,-0.479966 l -1.36502,3.660069 -1.48243,-0.432104 2.735301,-20.603715 A 57.49225,41.548974 72.570821 0 0 47.926202,9.2040336 Z M 35.814385,26.34551 a 2.569641,2.569641 0 0 1 3.221029,1.681822 2.569641,2.569641 0 0 1 -1.681675,3.221513 2.569641,2.569641 0 0 1 -3.221673,-1.682155 2.569641,2.569641 0 0 1 1.682319,-3.22118 z m 1.640766,8.372811 a 2.569641,2.569641 0 0 1 3.221525,1.681669 2.569641,2.569641 0 0 1 -1.682169,3.221665 2.569641,2.569641 0 0 1 -3.22117,-1.682308 2.569641,2.569641 0 0 1 1.681814,-3.221026 z m -10.98455,6.262797 a 1.3276478,2.569641 2.5119007 0 1 0.173866,-0.01452 1.3276478,2.569641 2.5119007 0 1 1.213735,2.625585 1.3276478,2.569641 2.5119007 0 1 -1.43897,2.509053 1.3276478,2.569641 2.5119007 0 1 -1.213735,-2.625582 1.3276478,2.569641 2.5119007 0 1 1.265104,-2.49454 z M 83.762752,26.308067 a 2.569641,1.3276478 46.188352 0 1 2.428265,1.110131 2.569641,1.3276478 46.188352 0 1 0.821015,2.773453 2.569641,1.3276478 46.188352 0 1 -2.737141,-0.935168 2.569641,1.3276478 46.188352 0 1 -0.821014,-2.773451 2.569641,1.3276478 46.188352 0 1 0.308888,-0.174958 z m -10.394932,5.8437 a 2.569641,2.569641 0 0 1 3.221668,1.682156 2.569641,2.569641 0 0 1 -1.682311,3.221182 2.569641,2.569641 0 0 1 -3.221011,-1.681827 2.569641,2.569641 0 0 1 1.681654,-3.221511 z M 39.448856,43.070086 a 2.569641,2.569641 0 0 1 3.221031,1.681823 2.569641,2.569641 0 0 1 -1.681677,3.221514 2.569641,2.569641 0 0 1 -3.221652,-1.682162 2.569641,2.569641 0 0 1 1.682298,-3.221175 z m 23.941593,-5.810449 a 2.569641,2.569641 0 0 1 3.221024,1.681825 2.569641,2.569641 0 0 1 -1.681667,3.221508 2.569641,2.569641 0 0 1 -3.221682,-1.682152 2.569641,2.569641 0 0 1 1.682325,-3.221181 z m -13.626552,4.636924 a 2.569641,2.569641 0 0 1 3.22103,1.681822 2.569641,2.569641 0 0 1 -1.681675,3.221511 2.569641,2.569641 0 0 1 -3.221663,-1.682156 2.569641,2.569641 0 0 1 1.682308,-3.221177 z m -24.027004,8.472066 a 1.3276478,2.569641 2.5119007 0 1 0.173877,-0.01452 1.3276478,2.569641 2.5119007 0 1 1.213726,2.625583 1.3276478,2.569641 2.5119007 0 1 -1.43897,2.509054 1.3276478,2.569641 2.5119007 0 1 -1.213716,-2.625588 1.3276478,2.569641 2.5119007 0 1 1.265083,-2.494532 z M 89.758031,32.715494 a 2.569641,1.3276478 59.207354 0 1 2.296063,1.597714 2.569641,1.3276478 59.207354 0 1 0.174995,2.887046 2.569641,1.3276478 59.207354 0 1 -2.456239,-1.527666 2.569641,1.3276478 59.207354 0 1 -0.174995,-2.887044 2.569641,1.3276478 59.207354 0 1 0.160176,-0.07004 z m -60.093194,20.72906 a 1.3276478,2.569641 2.5119007 0 1 0.174034,-0.01404 1.3276478,2.569641 2.5119007 0 1 1.214061,2.624946 1.3276478,2.569641 2.5119007 0 1 -1.438969,2.509057 1.3276478,2.569641 2.5119007 0 1 -1.214063,-2.624948 1.3276478,2.569641 2.5119007 0 1 1.264937,-2.495021 z M 88.680692,37.004313 a 2.569641,1.3276478 59.207354 0 1 2.295901,1.597232 2.569641,1.3276478 59.207354 0 1 0.174499,2.8872 2.569641,1.3276478 59.207354 0 1 -2.455729,-1.527823 2.569641,1.3276478 59.207354 0 1 -0.175008,-2.887037 2.569641,1.3276478 59.207354 0 1 0.160337,-0.06957 z M 75.545613,46.37191 a 7.8995387,7.8995387 0 0 1 9.902699,5.170574 7.8995387,7.8995387 0 0 1 -5.170439,9.903179 7.8995387,7.8995387 0 0 1 -9.903317,-5.170917 7.8995387,7.8995387 0 0 1 5.171057,-9.902836 z m -30.68302,10.6482 a 7.8995387,7.8995387 0 0 1 9.902834,5.171069 7.8995387,7.8995387 0 0 1 -5.170567,9.902686 7.8995387,7.8995387 0 0 1 -9.90317,-5.170431 7.8995387,7.8995387 0 0 1 5.170903,-9.903324 z m -11.15021,23.834212 a 2.569641,1.3276478 76.014261 0 1 1.909231,2.172712 2.569641,1.3276478 76.014261 0 1 -0.667307,2.81438 2.569641,1.3276478 76.014261 0 1 -1.909231,-2.172715 2.569641,1.3276478 76.014261 0 1 0.667307,-2.814377 z M 99.168484,63.536541 a 2.5696388,0.81372229 72.620516 0 1 1.544086,2.210955 2.5696388,0.81372229 72.620516 0 1 -0.0107,2.694056 2.5696388,0.81372229 72.620516 0 1 -1.544057,-2.21096 2.5696388,0.81372229 72.620516 0 1 0.01074,-2.694051 z m -59.241358,19.21208 a 2.569641,1.3276478 54.887199 0 1 2.409615,1.419958 2.569641,1.3276478 54.887199 0 1 0.391713,2.866021 2.569641,1.3276478 54.887199 0 1 -2.564014,-1.338366 2.569641,1.3276478 54.887199 0 1 -0.392197,-2.865866 2.569641,1.3276478 54.887199 0 1 0.154883,-0.08175 z M 95.449455,67.127876 a 2.569641,1.3276478 72.670337 0 1 2.032798,2.057528 2.569641,1.3276478 72.670337 0 1 -0.501709,2.848405 2.569641,1.3276478 72.670337 0 1 -2.032798,-2.05753 2.569641,1.3276478 72.670337 0 1 0.501709,-2.848403 z M 68.083903,78.519443 a 2.0128855,2.569641 72.570821 0 1 3.054795,1.150633 2.0128855,2.569641 72.570821 0 1 -1.848864,2.690626 2.0128855,2.569641 72.570821 0 1 -3.054472,-1.151269 2.0128855,2.569641 72.570821 0 1 1.848541,-2.68999 z M 38.810764,88.04816 a 2.569641,1.3276478 68.009449 0 1 2.193012,1.885424 2.569641,1.3276478 68.009449 0 1 -0.268513,2.879901 2.569641,1.3276478 68.009449 0 1 -2.193635,-1.885765 2.569641,1.3276478 68.009449 0 1 0.269136,-2.87956 z M 99.275881,70.595204 a 2.5696399,1.1135122 72.646151 0 1 1.829069,2.121495 2.5696399,1.1135122 72.646151 0 1 -0.29697,2.784124 2.5696399,1.1135122 72.646151 0 1 -1.829055,-2.121491 2.5696399,1.1135122 72.646151 0 1 0.296956,-2.784128 z M 77.37359,86.376231 a 2.569641,2.569641 0 0 1 3.221668,1.682152 2.569641,2.569641 0 0 1 -1.682311,3.221179 2.569641,2.569641 0 0 1 -3.221011,-1.68183 2.569641,2.569641 0 0 1 1.681654,-3.221501 z m -12.052747,4.502374 a 2.569641,2.569641 0 0 1 3.221011,1.681824 2.569641,2.569641 0 0 1 -1.681654,3.221513 2.569641,2.569641 0 0 1 -3.221668,-1.682168 2.569641,2.569641 0 0 1 1.682311,-3.221169 z m -8.783666,3.813721 a 2.569641,1.8844034 53.333181 0 1 2.602513,1.156402 2.569641,1.8844034 53.333181 0 1 0.02341,3.186789 2.569641,1.8844034 53.333181 0 1 -3.046157,-0.935928 2.569641,1.8844034 53.333181 0 1 -0.02321,-3.186306 2.569641,1.8844034 53.333181 0 1 0.443466,-0.221006 z m 31.472676,-8.917331 a 2.569641,1.7130939 86.405675 0 1 0.221653,-0.03595 2.569641,1.7130939 86.405675 0 1 1.870851,2.457221 2.569641,1.7130939 86.405675 0 1 -1.5487,2.671714 2.569641,1.7130939 86.405675 0 1 -1.870863,-2.457221 2.569641,1.7130939 86.405675 0 1 1.327059,-2.635782 z M 51.237395,101.32977 a 2.5420128,1.1880017 51.651538 0 1 2.408015,1.59356 2.5420128,1.1880017 51.651538 0 1 0.371594,2.57904 2.5420128,1.1880017 51.651538 0 1 -2.563796,-1.54358 2.5420128,1.1880017 51.651538 0 1 -0.371605,-2.57903 2.5420128,1.1880017 51.651538 0 1 0.155803,-0.05 z m 44.10018,-11.391643 a 2.5420129,1.1880017 79.260344 0 1 0.155156,-0.01452 2.5420129,1.1880017 79.260344 0 1 1.556565,2.555348 2.5420129,1.1880017 79.260344 0 1 -0.866277,2.458012 2.5420129,1.1880017 79.260344 0 1 -1.556713,-2.555849 2.5420129,1.1880017 79.260344 0 1 0.711255,-2.442992 z m -14.486287,6.658018 a 2.1413675,2.1413675 0 0 1 2.684952,1.401902 2.1413675,2.1413675 0 0 1 -1.402081,2.684453 2.1413675,2.1413675 0 0 1 -2.684294,-1.401581 2.1413675,2.1413675 0 0 1 1.401423,-2.684774 z m -13.701447,5.827715 a 2.1413675,2.1413675 0 0 1 2.684441,1.40205 2.1413675,2.1413675 0 0 1 -1.40157,2.68431 2.1413675,2.1413675 0 0 1 -2.684791,-1.40144 2.1413675,2.1413675 0 0 1 1.40192,-2.68492 z m 3.511161,8.66228 a 2.1413675,1.6274392 8.1198767 0 1 1.0904,-0.0644 2.1413675,1.6274392 8.1198767 0 1 1.89038,1.91363 2.1413675,1.6274392 8.1198767 0 1 -2.35013,1.30838 2.1413675,1.6274392 8.1198767 0 1 -1.88975,-1.91332 2.1413675,1.6274392 8.1198767 0 1 1.2591,-1.24418 z m 12.828177,-3.76978 a 1.6274392,2.1413675 58.733198 0 1 2.172477,0.51998 1.6274392,2.1413675 58.733198 0 1 -0.985862,2.50252 1.6274392,2.1413675 58.733198 0 1 -2.674952,-0.27942 1.6274392,2.1413675 58.733198 0 1 0.985835,-2.5025 1.6274392,2.1413675 58.733198 0 1 0.502529,-0.24048 z" />
</svg>
